<svg xmlns="http://www.w3.org/2000/svg" width="438.554" height="297.269" viewBox="0 0 438.554 297.269">
  <g id="Group_408" data-name="Group 408" transform="translate(0 0)">
    <g id="Group_384" data-name="Group 384" transform="translate(2.428 16.007)">
      <path id="Path_1687" data-name="Path 1687" d="M481.147,121.162a14.436,14.436,0,0,1,2.728,2.667l3.476-.632,2.3,5.379-2.867,2.073a14.037,14.037,0,0,1,.039,3.815l2.905,2.011-2.181,5.426-3.491-.563a14.435,14.435,0,0,1-2.667,2.728l.632,3.476-5.379,2.3-2.073-2.867a14.038,14.038,0,0,1-3.815.039l-2.011,2.905-5.433-2.181.563-3.491a14.432,14.432,0,0,1-2.728-2.667l-3.476.632-2.3-5.379,2.867-2.073a14.032,14.032,0,0,1-.039-3.815l-2.906-2.011,2.181-5.426,3.491.563a14.436,14.436,0,0,1,2.667-2.728L463,117.864l5.379-2.3,2.073,2.867a14.041,14.041,0,0,1,3.815-.039l2.012-2.905,5.426,2.181-.563,3.491h0Zm-6.05,5.819a6.275,6.275,0,1,0,3.484,8.162A6.273,6.273,0,0,0,475.1,126.981Z" transform="translate(-106.832 -42.491)" fill="#ffc400" fill-rule="evenodd"/>
      <path id="Path_1688" data-name="Path 1688" d="M56.269,150.242a25.635,25.635,0,0,1,4.925,4.825l6.289-1.148,4.154,9.726-5.179,3.746a25.813,25.813,0,0,1,.077,6.9l5.256,3.63-3.946,9.811-6.3-1.01a25.864,25.864,0,0,1-4.824,4.925l1.148,6.289-9.726,4.154-3.746-5.179a26.085,26.085,0,0,1-6.89.077l-3.63,5.256-9.811-3.946,1.01-6.3a25.863,25.863,0,0,1-4.925-4.825l-6.289,1.148L9.7,178.588l5.179-3.746a25.76,25.76,0,0,1-.077-6.89l-5.256-3.63,3.946-9.811,6.3,1.01a25.864,25.864,0,0,1,4.824-4.925l-1.148-6.289,9.726-4.154,3.746,5.179a25.76,25.76,0,0,1,6.89-.077L47.468,140l9.811,3.946-1.01,6.312h0Zm-10.928,10.52a11.346,11.346,0,1,0,6.3,14.759A11.351,11.351,0,0,0,45.341,160.762Z" transform="translate(-4.618 -48.111)" fill="#58b1ff" fill-rule="evenodd"/>
      <path id="Path_1689" data-name="Path 1689" d="M29,87.712a14.433,14.433,0,0,1,2.728,2.667l3.476-.632,2.3,5.379L34.633,97.2a14.039,14.039,0,0,1,.039,3.815l2.905,2.012L35.4,108.451l-3.491-.563a14.433,14.433,0,0,1-2.667,2.728l.632,3.476-5.379,2.3-2.073-2.867a14.354,14.354,0,0,1-3.815.039l-2.011,2.906-5.426-2.181.563-3.491A14.432,14.432,0,0,1,9,108.128l-3.476.632-2.3-5.379,2.867-2.073a14.039,14.039,0,0,1-.039-3.815L3.15,95.481l2.181-5.426,3.491.563a14.433,14.433,0,0,1,2.667-2.728l-.632-3.476,5.379-2.3,2.073,2.867a14.039,14.039,0,0,1,3.815-.039l2.011-2.905,5.426,2.181L29,87.712h0Zm-6.05,5.819a6.275,6.275,0,1,0,3.484,8.162A6.273,6.273,0,0,0,22.949,93.531Z" transform="translate(-3.15 -34.82)" fill="#00c4b3" fill-rule="evenodd"/>
      <path id="Path_1690" data-name="Path 1690" d="M111.812,30.858A35.772,35.772,0,0,1,120.22,35.3l7.861-3.992,9.31,11.221-5.372,6.99a36.129,36.129,0,0,1,2.813,9.079l8.377,2.736-1.356,14.52-8.732,1.141a35.772,35.772,0,0,1-4.439,8.408l3.992,7.861-11.221,9.31-6.99-5.372a36.131,36.131,0,0,1-9.079,2.813l-2.736,8.377-14.52-1.356L86.988,98.3a35.772,35.772,0,0,1-8.408-4.439l-7.861,3.992-9.31-11.221,5.372-6.99a36.13,36.13,0,0,1-2.813-9.079L55.59,67.828l1.356-14.52,8.732-1.141a35.773,35.773,0,0,1,4.439-8.408L66.125,35.9l11.221-9.31,6.99,5.372a36.13,36.13,0,0,1,9.079-2.813l2.736-8.377,14.52,1.356,1.141,8.74h0ZM101.5,49.062a15.643,15.643,0,1,0,14.127,17.024A15.639,15.639,0,0,0,101.5,49.062Z" transform="translate(-15.175 -20.77)" fill="#ff5d5d" fill-rule="evenodd"/>
    </g>
    <g id="Group_385" data-name="Group 385" transform="translate(0 201.122)">
      <path id="Path_1691" data-name="Path 1691" d="M38.118,326.2c9.618-6.3,12.069-18.358,11.961-29.248-.015-1.819.231-3.73-.609-5.349s-2.852-2.751-4.524-2.027c-1.38.6-2.019,2.158-2.813,3.437a10.761,10.761,0,0,1-4.416,3.969,4.171,4.171,0,0,1-3.792.247c-1.564-.9-1.7-3.075-1.642-4.878q.15-5.052.308-10.1a16.562,16.562,0,0,0-.424-5.379,5.64,5.64,0,0,0-3.476-3.877,3.448,3.448,0,0,0-4.316,2.173,16.8,16.8,0,0,0-.108,2.25A1.912,1.912,0,0,1,23.1,279.18a2.229,2.229,0,0,1-1.988-.879,24.11,24.11,0,0,1-4.208-6.62,33.043,33.043,0,0,0-3.915-6.821,9.972,9.972,0,0,0-6.62-3.876C3.746,260.776.917,262.3.193,264.83s.717,5.156,2.3,7.252a40.549,40.549,0,0,0,8.316,8.208,3.344,3.344,0,0,1,1.387,1.541c.37,1.218-.817,2.381-2.035,2.751a21.418,21.418,0,0,1-4.285.37c-1.433.131-2.99.717-3.568,2.035-.794,1.826.724,3.8,2.235,5.11a35.151,35.151,0,0,0,10.219,6.15,11.792,11.792,0,0,1,3.807,1.942,3.317,3.317,0,0,1,.994,3.853,3.474,3.474,0,0,1-3.784,1.333,24.921,24.921,0,0,1-3.984-1.611c-2.5-.994-5.749-.9-7.414,1.2a5.657,5.657,0,0,0-.74,5.04,13.184,13.184,0,0,0,2.667,4.532,35.244,35.244,0,0,0,14.774,10.79c5.788,2.135,11.183,2.805,17.032.855" transform="translate(0 -260.965)" fill="#00c4b3"/>
      <path id="Path_1692" data-name="Path 1692" d="M3.76,262.857s.054.062.177.177.308.285.532.493c.47.432,1.164,1.064,2.027,1.9a68.3,68.3,0,0,1,6.813,7.614c1.318,1.7,2.69,3.638,4.123,5.734s2.944,4.354,4.439,6.79A80.625,80.625,0,0,1,26.2,293.4c.67,1.395,1.264,2.859,1.873,4.347s1.218,3,1.834,4.524a163.581,163.581,0,0,1,6.1,17.549,79.84,79.84,0,0,1,2.69,14.9,59.19,59.19,0,0,1-.077,10.212c-.123,1.2-.239,2.135-.347,2.759-.046.3-.077.539-.1.717a.993.993,0,0,0-.023.247s.023-.077.054-.239c.031-.177.077-.409.139-.709.123-.624.262-1.557.408-2.759a55.415,55.415,0,0,0,.185-10.242,78.053,78.053,0,0,0-2.628-14.967,159.511,159.511,0,0,0-6.088-17.587c-.617-1.526-1.233-3.044-1.834-4.532s-1.21-2.959-1.88-4.362a79.359,79.359,0,0,0-4.362-7.853c-1.511-2.428-3.037-4.686-4.47-6.782s-2.828-4.023-4.162-5.726A65.637,65.637,0,0,0,6.6,265.324c-.886-.825-1.588-1.449-2.073-1.857-.231-.193-.416-.355-.555-.47-.123-.1-.193-.154-.2-.146Z" transform="translate(-0.862 -261.397)" fill="#263238"/>
      <path id="Path_1693" data-name="Path 1693" d="M33.14,296.394a7.638,7.638,0,0,0,.2-.763c.108-.5.239-1.218.393-2.119.3-1.8.632-4.285.994-7.029s.724-5.225,1.056-7.013c.162-.894.3-1.611.4-2.112a3.575,3.575,0,0,0,.123-.778,3.776,3.776,0,0,0-.247.755c-.139.486-.316,1.2-.509,2.1-.393,1.78-.8,4.262-1.156,7.013-.347,2.713-.655,5.164-.894,7.036-.116.848-.208,1.557-.285,2.127a3.328,3.328,0,0,0-.069.786Z" transform="translate(-7.599 -264.546)" fill="#263238"/>
      <path id="Path_1694" data-name="Path 1694" d="M2.73,295.925s.331.069.933.131,1.48.162,2.551.308c2.15.277,5.11.771,8.347,1.457s6.142,1.433,8.223,2.035c1.048.293,1.88.555,2.466.724a5.192,5.192,0,0,0,.909.247,4.725,4.725,0,0,0-.871-.37c-.57-.216-1.4-.509-2.435-.832-2.073-.663-4.979-1.449-8.223-2.135a84.136,84.136,0,0,0-8.385-1.364c-1.079-.116-1.958-.177-2.566-.2a5,5,0,0,0-.948,0Z" transform="translate(-0.626 -268.978)" fill="#263238"/>
      <path id="Path_1695" data-name="Path 1695" d="M45.62,327.366a2.464,2.464,0,0,0,.17-.277c.116-.224.254-.5.424-.832.362-.724.863-1.78,1.464-3.1,1.2-2.636,2.744-6.327,4.393-10.42s3.152-7.8,4.3-10.45c.563-1.287,1.025-2.351,1.364-3.144l.37-.855a1.673,1.673,0,0,0,.108-.308,1.247,1.247,0,0,0-.17.277c-.116.224-.254.5-.424.832-.362.724-.863,1.78-1.464,3.1-1.2,2.636-2.744,6.327-4.393,10.42s-3.152,7.792-4.3,10.45c-.563,1.287-1.025,2.351-1.364,3.144-.146.339-.27.624-.362.855a1.668,1.668,0,0,0-.108.308Z" transform="translate(-10.461 -269.453)" fill="#263238"/>
      <path id="Path_1696" data-name="Path 1696" d="M5.35,322.229a2.705,2.705,0,0,0,.308.131q.358.127.9.324c.832.285,1.958.678,3.322,1.148,2.805.971,6.666,2.358,10.928,3.9s8.138,2.89,10.967,3.807c1.41.455,2.559.817,3.36,1.048.37.108.67.193.917.262a1.119,1.119,0,0,0,.331.069,1.615,1.615,0,0,0-.308-.131q-.358-.127-.9-.324c-.832-.285-1.958-.678-3.322-1.148-2.805-.971-6.666-2.358-10.928-3.9s-8.138-2.89-10.967-3.807c-1.41-.455-2.559-.817-3.36-1.048-.37-.108-.67-.193-.917-.262A1.122,1.122,0,0,0,5.35,322.229Z" transform="translate(-1.227 -275.013)" fill="#263238"/>
    </g>
    <g id="Group_388" data-name="Group 388" transform="translate(294.302 48.345)">
      <g id="Group_386" data-name="Group 386">
        <path id="Path_1697" data-name="Path 1697" d="M438.446,199.4l-46.5-.216a10.108,10.108,0,0,1-10.081-10.142l.493-116.25A10.114,10.114,0,0,1,392.536,62.73l46.5.216a10.112,10.112,0,0,1,10.081,10.142l-.493,116.25A10.114,10.114,0,0,1,438.446,199.4Z" transform="translate(-381.87 -62.73)" fill="#455a64"/>
        <path id="Path_1698" data-name="Path 1698" d="M439.88,68.15l-9.017-.039a2.233,2.233,0,0,0-2.2,2.274v1.634a2.244,2.244,0,0,1-2.2,2.274l-17.572-.077a2.238,2.238,0,0,1-2.181-2.289V70.293A2.218,2.218,0,0,0,404.536,68l-3.167-.015-7.892-.039a7.09,7.09,0,0,0-7.129,7.044l-.478,113.468a7.088,7.088,0,0,0,7.059,7.106l46.4.216a7.1,7.1,0,0,0,7.129-7.044l.478-113.468a7.088,7.088,0,0,0-7.059-7.106Z" transform="translate(-382.787 -63.927)" fill="#fff"/>
      </g>
      <rect id="Rectangle_510" data-name="Rectangle 510" width="45.917" height="3.075" transform="translate(10.412 81.431)" fill="#2fb3f2"/>
      <path id="Path_1699" data-name="Path 1699" d="M439.815,184.03c0,.108-9.8.2-21.887.2s-21.887-.092-21.887-.2,9.8-.2,21.887-.2S439.815,183.922,439.815,184.03Z" transform="translate(-385.119 -90.5)" fill="#455a64"/>
      <path id="Path_1700" data-name="Path 1700" d="M439.815,89.49c0,.108-9.8.2-21.887.2s-21.887-.092-21.887-.2,9.8-.2,21.887-.2S439.815,89.382,439.815,89.49Z" transform="translate(-385.119 -68.82)" fill="#455a64"/>
      <path id="Path_1701" data-name="Path 1701" d="M439.815,191.28c0,.108-9.8.2-21.887.2s-21.887-.092-21.887-.2,9.8-.2,21.887-.2S439.815,191.172,439.815,191.28Z" transform="translate(-385.119 -92.162)" fill="#455a64"/>
      <path id="Path_1702" data-name="Path 1702" d="M439.815,198.54c0,.108-9.8.2-21.887.2s-21.887-.092-21.887-.2,9.8-.2,21.887-.2S439.815,198.433,439.815,198.54Z" transform="translate(-385.119 -93.827)" fill="#455a64"/>
      <path id="Path_1703" data-name="Path 1703" d="M439.815,205.79c0,.108-9.8.2-21.887.2s-21.887-.092-21.887-.2,9.8-.2,21.887-.2S439.815,205.682,439.815,205.79Z" transform="translate(-385.119 -95.49)" fill="#455a64"/>
      <path id="Path_1704" data-name="Path 1704" d="M439.815,213.05c0,.108-9.8.2-21.887.2s-21.887-.093-21.887-.2,9.8-.2,21.887-.2S439.815,212.943,439.815,213.05Z" transform="translate(-385.119 -97.155)" fill="#455a64"/>
      <path id="Path_1705" data-name="Path 1705" d="M440.625,221.27c0,.108-9.8.2-21.887.2s-21.887-.093-21.887-.2,9.8-.2,21.887-.2S440.625,221.162,440.625,221.27Z" transform="translate(-385.305 -99.039)" fill="#455a64"/>
      <g id="Group_387" data-name="Group 387" transform="translate(10.913 27.043)">
        <rect id="Rectangle_511" data-name="Rectangle 511" width="46.033" height="44.538" fill="#e0e0e0"/>
        <path id="Path_1706" data-name="Path 1706" d="M400.67,143.843,413.4,120.93l10.412,14.643,6.335-7.776,9.41,16.046Z" transform="translate(-397.094 -103.119)" fill="#00c4b3"/>
        <path id="Path_1707" data-name="Path 1707" d="M434.488,114.154a3.314,3.314,0,1,1-3.314-3.314A3.314,3.314,0,0,1,434.488,114.154Z" transform="translate(-403.329 -100.806)" fill="#efca35"/>
        <path id="Path_1708" data-name="Path 1708" d="M439.483,139.69s0-.062-.008-.185,0-.3-.008-.516c0-.47-.015-1.141-.023-2-.008-1.765-.031-4.324-.046-7.56-.023-6.5-.054-15.768-.092-26.889l.185.185c-11.267.008-24.616.023-38.889.031-.054.046.408-.416.216-.216h0v19.591c0,6.235-.015,12.138-.023,17.556l-.193-.193c11.606.039,21.3.077,28.122.1,3.4.023,6.081.039,7.93.046.9.008,1.611.015,2.1.023.231,0,.408.008.547.008a.761.761,0,0,1,.193.008s-.054,0-.169.008c-.131,0-.308,0-.524.008-.486,0-1.179.015-2.065.023-1.842.015-4.509.031-7.892.046-6.844.023-16.585.054-28.246.1h-.193v-.193c0-5.426-.015-11.321-.023-17.556V102.528h0c-.193.185.27-.285.223-.239,14.273.015,27.629.023,38.889.031h.193v.193c-.039,11.175-.077,20.477-.1,27.013-.023,3.221-.039,5.765-.046,7.522q-.012,1.272-.023,1.965c0,.208,0,.37-.008.5a.516.516,0,0,1-.008.162Z" transform="translate(-397.018 -98.844)" fill="#455a64"/>
      </g>
    </g>
    <g id="Group_393" data-name="Group 393" transform="translate(109.275)">
      <g id="Group_389" data-name="Group 389" transform="translate(0)">
        <path id="Path_1709" data-name="Path 1709" d="M8.9,0H111.572a8.9,8.9,0,0,1,8.9,8.9V163.994a8.9,8.9,0,0,1-8.9,8.9H8.9a8.91,8.91,0,0,1-8.9-8.9V8.9A8.91,8.91,0,0,1,8.9,0Z" transform="translate(0 120.474) rotate(-90)" fill="#455a64"/>
        <rect id="Rectangle_512" data-name="Rectangle 512" width="112.875" height="144.388" transform="translate(11.83 116.682) rotate(-90)" fill="#fff"/>
        <path id="Path_1710" data-name="Path 1710" d="M353.484,72.16a4.624,4.624,0,1,1-4.624,4.624A4.628,4.628,0,0,1,353.484,72.16Z" transform="translate(-189.274 -16.547)" fill="#263238"/>
        <rect id="Rectangle_513" data-name="Rectangle 513" width="36.284" height="1.911" rx="0.956" transform="translate(4.979 78.379) rotate(-90)" fill="#263238"/>
      </g>
      <g id="Group_392" data-name="Group 392" transform="translate(17.872 10.705)">
        <rect id="Rectangle_514" data-name="Rectangle 514" width="45.917" height="3.075" transform="translate(59.813 1.58)" fill="#2fb3f2"/>
        <rect id="Rectangle_515" data-name="Rectangle 515" width="45.917" height="3.075" transform="translate(0 54.387)" fill="#2fb3f2"/>
        <path id="Path_1711" data-name="Path 1711" d="M299.7,30.72c0,.108-12.786.2-28.554.2s-28.554-.092-28.554-.2,12.778-.2,28.554-.2S299.7,30.612,299.7,30.72Z" transform="translate(-182.777 -17.703)" fill="#455a64"/>
        <path id="Path_1712" data-name="Path 1712" d="M299.7,39.42c0,.108-12.786.2-28.554.2s-28.554-.092-28.554-.2,12.778-.2,28.554-.2S299.7,39.312,299.7,39.42Z" transform="translate(-182.777 -19.699)" fill="#455a64"/>
        <path id="Path_1713" data-name="Path 1713" d="M299.7,48.13c0,.108-12.786.2-28.554.2s-28.554-.092-28.554-.2,12.778-.2,28.554-.2S299.7,48.022,299.7,48.13Z" transform="translate(-182.777 -21.696)" fill="#455a64"/>
        <path id="Path_1714" data-name="Path 1714" d="M299.7,56.83c0,.108-12.786.2-28.554.2s-28.554-.092-28.554-.2,12.778-.2,28.554-.2S299.7,56.722,299.7,56.83Z" transform="translate(-182.777 -23.691)" fill="#455a64"/>
        <path id="Path_1715" data-name="Path 1715" d="M299.7,65.53c0,.108-12.786.2-28.554.2s-28.554-.092-28.554-.2,12.778-.2,28.554-.2S299.7,65.422,299.7,65.53Z" transform="translate(-182.777 -25.686)" fill="#455a64"/>
        <path id="Path_1716" data-name="Path 1716" d="M287.174,74.23c0,.108-9.98.2-22.288.2s-22.3-.092-22.3-.2,9.98-.2,22.3-.2S287.174,74.122,287.174,74.23Z" transform="translate(-182.777 -27.681)" fill="#455a64"/>
        <path id="Path_1717" data-name="Path 1717" d="M240.541,100.09c0,.108-16.77.2-37.455.2s-37.455-.093-37.455-.2,16.77-.2,37.455-.2S240.541,99.982,240.541,100.09Z" transform="translate(-165.129 -33.611)" fill="#455a64"/>
        <path id="Path_1718" data-name="Path 1718" d="M240.541,107.35c0,.108-16.77.2-37.455.2s-37.455-.092-37.455-.2,16.77-.2,37.455-.2S240.541,107.242,240.541,107.35Z" transform="translate(-165.129 -35.276)" fill="#455a64"/>
        <path id="Path_1719" data-name="Path 1719" d="M240.541,114.6c0,.108-16.77.2-37.455.2s-37.455-.092-37.455-.2,16.77-.2,37.455-.2S240.541,114.493,240.541,114.6Z" transform="translate(-165.129 -36.938)" fill="#455a64"/>
        <path id="Path_1720" data-name="Path 1720" d="M240.541,121.86c0,.108-16.77.2-37.455.2s-37.455-.092-37.455-.2,16.77-.2,37.455-.2S240.541,121.753,240.541,121.86Z" transform="translate(-165.129 -38.603)" fill="#455a64"/>
        <path id="Path_1721" data-name="Path 1721" d="M240.541,129.11c0,.108-16.77.2-37.455.2s-37.455-.092-37.455-.2,16.77-.2,37.455-.2S240.541,129,240.541,129.11Z" transform="translate(-165.129 -40.266)" fill="#455a64"/>
        <g id="Group_390" data-name="Group 390" transform="translate(0.501)">
          <rect id="Rectangle_516" data-name="Rectangle 516" width="46.033" height="44.538" fill="#fff"/>
          <path id="Path_1722" data-name="Path 1722" d="M170.26,59.91,183,36.99l10.412,14.651,6.327-7.776,9.418,16.046Z" transform="translate(-166.692 -19.187)" fill="#00c4b3"/>
          <path id="Path_1723" data-name="Path 1723" d="M204.088,30.224a3.314,3.314,0,1,1-3.314-3.314A3.314,3.314,0,0,1,204.088,30.224Z" transform="translate(-172.929 -16.876)" fill="#efca35"/>
          <path id="Path_1724" data-name="Path 1724" d="M209.083,55.763s0-.062-.008-.185,0-.3-.008-.516c0-.478-.015-1.141-.023-2-.015-1.765-.031-4.324-.046-7.56-.023-6.5-.054-15.768-.092-26.889l.185.185c-11.267.008-24.616.023-38.889.031-.054.046.408-.416.216-.216h0V38.2c0,6.235-.015,12.138-.023,17.556l-.193-.193c11.607.039,21.3.077,28.122.1,3.4.023,6.081.039,7.93.046.9.008,1.611.015,2.1.023.231,0,.409.008.547.008a.807.807,0,0,1,.193.008s-.054,0-.17.008c-.131,0-.308,0-.524.008-.486,0-1.179.015-2.065.023-1.842.015-4.509.031-7.892.046-6.844.023-16.585.054-28.246.1h-.193V55.74c0-5.426-.015-11.321-.023-17.556V18.608h0c-.193.185.27-.285.224-.239,14.273.008,27.629.023,38.889.031h.193v.185c-.039,11.175-.077,20.477-.1,27.013-.023,3.221-.039,5.765-.046,7.522q-.012,1.272-.023,1.965c0,.208-.008.37-.008.5a.517.517,0,0,1-.008.162Z" transform="translate(-166.618 -14.916)" fill="#455a64"/>
        </g>
        <g id="Group_391" data-name="Group 391" transform="translate(85.747 60.298)">
          <rect id="Rectangle_517" data-name="Rectangle 517" width="32.577" height="31.521" fill="#fff"/>
          <path id="Path_1725" data-name="Path 1725" d="M279.52,124.7l9.009-16.215,7.375,10.366,4.478-5.5,6.666,11.352Z" transform="translate(-276.992 -95.879)" fill="#00c4b3"/>
          <path id="Path_1726" data-name="Path 1726" d="M303.456,103.693a2.343,2.343,0,1,1-2.343-2.343A2.342,2.342,0,0,1,303.456,103.693Z" transform="translate(-281.406 -94.244)" fill="#efca35"/>
          <path id="Path_1727" data-name="Path 1727" d="M307,121.76v-.5c0-.339-.008-.809-.015-1.418-.008-1.249-.023-3.06-.031-5.356-.015-4.6-.039-11.16-.069-19.028l.131.131c-7.969,0-17.425.015-27.521.023-.038.031.293-.293.154-.154h0v13.865c0,4.416-.008,8.585-.015,12.423l-.131-.139c8.215.031,15.075.054,19.9.069,2.4.015,4.3.031,5.611.039.64,0,1.141.015,1.487.015h.385a.448.448,0,0,1,.139.008H306.9c-.093,0-.216,0-.37.008-.347,0-.832.008-1.464.015-1.3.008-3.191.023-5.58.039-4.848.015-11.737.039-19.992.069h-.139v-.139c0-3.838-.008-8.015-.015-12.423V95.449h0c-.139.131.193-.2.162-.17,10.1.008,19.552.015,27.521.023h.131v.131c-.031,7.907-.054,14.489-.069,19.113-.015,2.281-.031,4.077-.031,5.325,0,.6-.015,1.064-.015,1.395v.47Z" transform="translate(-276.943 -92.852)" fill="#455a64"/>
        </g>
      </g>
    </g>
    <g id="Group_399" data-name="Group 399" transform="translate(28.369 132.658)">
      <g id="Group_395" data-name="Group 395">
        <g id="Group_394" data-name="Group 394">
          <rect id="Rectangle_518" data-name="Rectangle 518" width="241.679" height="159.817" rx="14.57" transform="translate(10.111)" fill="#263238"/>
          <path id="Path_1728" data-name="Path 1728" d="M36.81,364.17H298.651v.27a13.724,13.724,0,0,1-13.718,13.718H50.528A13.724,13.724,0,0,1,36.81,364.44v-.27Z" transform="translate(-36.81 -216.168)" fill="#263238"/>
          <rect id="Rectangle_519" data-name="Rectangle 519" width="228.031" height="134.963" transform="translate(16.593 6.35)" fill="#e0e0e0"/>
          <path id="Path_1729" data-name="Path 1729" d="M175.81,364.17l3.245,5.164h45.725l3.013-5.164Z" transform="translate(-68.685 -216.168)" fill="#455a64"/>
        </g>
        <rect id="Rectangle_520" data-name="Rectangle 520" width="209.943" height="125.922" transform="translate(24.2 15.337)" fill="#fafafa"/>
        <path id="Path_1730" data-name="Path 1730" d="M78.79,199.565a1.765,1.765,0,1,1-1.765-1.765A1.765,1.765,0,0,1,78.79,199.565Z" transform="translate(-45.627 -178.017)" fill="#455a64"/>
        <path id="Path_1731" data-name="Path 1731" d="M88.12,199.565a1.765,1.765,0,1,1-1.765-1.765A1.765,1.765,0,0,1,88.12,199.565Z" transform="translate(-47.767 -178.017)" fill="#455a64"/>
        <path id="Path_1732" data-name="Path 1732" d="M97.44,199.565a1.765,1.765,0,1,1-1.765-1.765A1.765,1.765,0,0,1,97.44,199.565Z" transform="translate(-49.904 -178.017)" fill="#455a64"/>
        <path id="Path_1733" data-name="Path 1733" d="M278.153,210.03c0,.108-47,.2-104.967.2s-104.975-.092-104.975-.2,46.989-.2,104.975-.2S278.153,209.922,278.153,210.03Z" transform="translate(-44.01 -180.775)" fill="#455a64"/>
        <rect id="Rectangle_521" data-name="Rectangle 521" width="241.679" height="0.771" transform="translate(10.111 148.103)" fill="#455a64"/>
      </g>
      <g id="Group_398" data-name="Group 398" transform="translate(41.417 37.748)">
        <rect id="Rectangle_522" data-name="Rectangle 522" width="45.917" height="3.075" transform="translate(0 52.684)" fill="#2fb3f2"/>
        <rect id="Rectangle_523" data-name="Rectangle 523" width="45.917" height="3.075" transform="translate(59.304 10.042)" fill="#2fb3f2"/>
        <path id="Path_1734" data-name="Path 1734" d="M281.718,248.92c0,.108-25.571.2-57.1.2s-57.108-.092-57.108-.2,25.564-.2,57.108-.2S281.718,248.813,281.718,248.92Z" transform="translate(-108.198 -227.441)" fill="#455a64"/>
        <path id="Path_1735" data-name="Path 1735" d="M281.718,257.62c0,.108-25.571.2-57.1.2s-57.108-.092-57.108-.2,25.564-.2,57.108-.2S281.718,257.512,281.718,257.62Z" transform="translate(-108.198 -229.436)" fill="#455a64"/>
        <path id="Path_1736" data-name="Path 1736" d="M281.718,266.33c0,.108-25.571.2-57.1.2s-57.108-.092-57.108-.2,25.564-.2,57.108-.2S281.718,266.223,281.718,266.33Z" transform="translate(-108.198 -231.434)" fill="#455a64"/>
        <path id="Path_1737" data-name="Path 1737" d="M281.718,275.03c0,.108-25.571.2-57.1.2s-57.108-.092-57.108-.2,25.564-.2,57.108-.2S281.718,274.922,281.718,275.03Z" transform="translate(-108.198 -233.429)" fill="#455a64"/>
        <path id="Path_1738" data-name="Path 1738" d="M281.718,283.73c0,.108-25.571.2-57.1.2s-57.108-.092-57.108-.2,25.564-.2,57.108-.2S281.718,283.622,281.718,283.73Z" transform="translate(-108.198 -235.424)" fill="#455a64"/>
        <path id="Path_1739" data-name="Path 1739" d="M212.084,292.44c0,.108-9.98.2-22.288.2s-22.3-.092-22.3-.2,9.98-.2,22.3-.2S212.084,292.332,212.084,292.44Z" transform="translate(-108.196 -237.421)" fill="#455a64"/>
        <path id="Path_1740" data-name="Path 1740" d="M292.272,309.33c0,.108-16.809.2-37.532.2s-37.54-.092-37.54-.2,16.8-.2,37.54-.2S292.272,309.223,292.272,309.33Z" transform="translate(-119.593 -241.294)" fill="#455a64"/>
        <path id="Path_1741" data-name="Path 1741" d="M292.272,318.56c0,.108-16.809.2-37.532.2s-37.54-.092-37.54-.2,16.8-.2,37.54-.2S292.272,318.452,292.272,318.56Z" transform="translate(-119.593 -243.411)" fill="#455a64"/>
        <path id="Path_1742" data-name="Path 1742" d="M292.272,327.8c0,.108-16.809.2-37.532.2s-37.54-.092-37.54-.2,16.8-.2,37.54-.2S292.272,327.692,292.272,327.8Z" transform="translate(-119.593 -245.53)" fill="#455a64"/>
        <path id="Path_1743" data-name="Path 1743" d="M292.272,337.04c0,.108-16.809.2-37.532.2s-37.54-.093-37.54-.2,16.8-.2,37.54-.2S292.272,336.932,292.272,337.04Z" transform="translate(-119.593 -247.648)" fill="#455a64"/>
        <path id="Path_1744" data-name="Path 1744" d="M136.966,308.44c0,.108-10.019.2-22.373.2s-22.373-.092-22.373-.2,10.019-.2,22.373-.2S136.966,308.332,136.966,308.44Z" transform="translate(-90.933 -241.09)" fill="#455a64"/>
        <path id="Path_1745" data-name="Path 1745" d="M136.966,315.7c0,.108-10.019.2-22.373.2s-22.373-.092-22.373-.2,10.019-.2,22.373-.2S136.966,315.592,136.966,315.7Z" transform="translate(-90.933 -242.755)" fill="#455a64"/>
        <path id="Path_1746" data-name="Path 1746" d="M136.966,322.95c0,.108-10.019.2-22.373.2s-22.373-.092-22.373-.2,10.019-.2,22.373-.2S136.966,322.842,136.966,322.95Z" transform="translate(-90.933 -244.417)" fill="#455a64"/>
        <path id="Path_1747" data-name="Path 1747" d="M136.966,330.21c0,.108-10.019.2-22.373.2s-22.373-.092-22.373-.2,10.019-.2,22.373-.2S136.966,330.1,136.966,330.21Z" transform="translate(-90.933 -246.082)" fill="#455a64"/>
        <path id="Path_1748" data-name="Path 1748" d="M136.966,337.46c0,.108-10.019.2-22.373.2s-22.373-.092-22.373-.2,10.019-.2,22.373-.2S136.966,337.352,136.966,337.46Z" transform="translate(-90.933 -247.745)" fill="#455a64"/>
        <g id="Group_396" data-name="Group 396">
          <rect id="Rectangle_524" data-name="Rectangle 524" width="46.033" height="44.538" fill="#e0e0e0"/>
          <path id="Path_1749" data-name="Path 1749" d="M95.18,267.14l12.732-22.92,10.42,14.651,6.327-7.784,9.418,16.053Z" transform="translate(-91.612 -226.409)" fill="#00c4b3"/>
          <path id="Path_1750" data-name="Path 1750" d="M129,237.454a3.314,3.314,0,1,1-3.314-3.314A3.314,3.314,0,0,1,129,237.454Z" transform="translate(-97.847 -224.098)" fill="#efca35"/>
          <path id="Path_1751" data-name="Path 1751" d="M134,262.993s0-.069-.008-.185c0-.131,0-.3-.008-.516,0-.47-.015-1.141-.023-2-.015-1.765-.031-4.324-.046-7.56-.023-6.5-.054-15.768-.092-26.889l.185.185c-11.267.008-24.616.023-38.889.031-.054.046.408-.416.216-.216h0v19.591c0,6.235-.015,12.138-.023,17.556l-.193-.193c11.607.039,21.3.077,28.122.1,3.4.023,6.081.039,7.93.046.9.008,1.611.015,2.1.023.231,0,.408.008.547.008a.806.806,0,0,1,.193.008s-.054,0-.17.008c-.131,0-.308,0-.524.008-.486,0-1.179.015-2.065.023-1.842.015-4.509.031-7.892.054l-28.246.092h-.193v-.193c0-5.426-.015-11.321-.023-17.556V225.838h0c-.193.185.27-.285.223-.239,14.273.008,27.629.023,38.889.031h.193v.185c-.039,11.175-.077,20.477-.1,27.013-.023,3.221-.038,5.765-.046,7.522q-.012,1.272-.023,1.965c0,.208-.008.37-.008.5a.516.516,0,0,1-.008.162Z" transform="translate(-91.538 -222.139)" fill="#455a64"/>
        </g>
        <g id="Group_397" data-name="Group 397" transform="translate(59.281 64.637)">
          <rect id="Rectangle_525" data-name="Rectangle 525" width="32.577" height="31.521" fill="#e0e0e0"/>
          <path id="Path_1752" data-name="Path 1752" d="M170.74,337.553l9.017-16.223,7.368,10.366,4.478-5.5,6.666,11.36Z" transform="translate(-168.22 -308.729)" fill="#00c4b3"/>
          <path id="Path_1753" data-name="Path 1753" d="M194.686,316.543a2.343,2.343,0,1,1-2.343-2.343A2.342,2.342,0,0,1,194.686,316.543Z" transform="translate(-172.636 -307.094)" fill="#efca35"/>
          <path id="Path_1754" data-name="Path 1754" d="M198.217,334.608v-.5c0-.331-.008-.809-.015-1.418-.008-1.248-.023-3.06-.031-5.356-.015-4.6-.039-11.159-.069-19.028l.131.131c-7.969,0-17.425.015-27.521.023-.039.031.293-.293.154-.154h0v13.865c0,4.416-.008,8.585-.015,12.423l-.139-.139c8.216.031,15.075.054,19.9.069,2.4.015,4.3.031,5.611.039.64,0,1.141.015,1.487.015h.4c-.092,0-.216,0-.37.008-.347,0-.832.008-1.464.015-1.3.008-3.191.023-5.58.038-4.848.015-11.738.039-19.992.069h-.139v-.139c0-3.838-.008-8.015-.015-12.423V308.289h0c-.139.131.185-.2.162-.17,10.1.008,19.552.015,27.521.023h.131v.131c-.031,7.907-.054,14.489-.069,19.113-.015,2.281-.023,4.077-.031,5.325,0,.6-.015,1.064-.015,1.395v.47Z" transform="translate(-168.168 -305.699)" fill="#455a64"/>
        </g>
      </g>
    </g>
    <g id="Group_407" data-name="Group 407" transform="translate(278.359 164.493)">
      <g id="Group_400" data-name="Group 400" transform="translate(145.788 106.604)">
        <path id="Path_1755" data-name="Path 1755" d="M559.868,361.788l-7.715-.917-1.8,14.443,11.275,1.457.169-.886c.717-3.954,3.383-20.177,2.905-22.936-.532-3.083-4.824,8.84-4.824,8.84Z" transform="translate(-550.35 -351.916)" fill="#c46900"/>
        <path id="Path_1756" data-name="Path 1756" d="M567.24,351.76c.139.015-.393,5.433-1.187,12.107s-1.541,12.061-1.68,12.046.393-5.433,1.187-12.108S567.1,351.745,567.24,351.76Z" transform="translate(-553.561 -351.76)" fill="#263238"/>
        <path id="Path_1757" data-name="Path 1757" d="M564.4,363.316c-.077.108-.478-.046-.848-.4s-.531-.755-.424-.84.432.154.771.486.578.647.5.755Z" transform="translate(-553.273 -354.121)" fill="#263238"/>
        <path id="Path_1758" data-name="Path 1758" d="M565.119,362.221c-.062.123-.524,0-.971-.347s-.686-.748-.593-.84.478.131.894.447.732.617.671.74Z" transform="translate(-553.373 -353.882)" fill="#263238"/>
        <path id="Path_1759" data-name="Path 1759" d="M564.061,377.424c.031.062-.193.254-.578.532a9.742,9.742,0,0,0-1.372,1.133,3.484,3.484,0,0,0-.825,1.48c-.108.424-.085.717-.154.732-.054.015-.216-.27-.193-.786a2.955,2.955,0,0,1,.809-1.765,5.124,5.124,0,0,1,1.557-1.1C563.737,377.447,564.03,377.362,564.061,377.424Z" transform="translate(-552.778 -357.641)" fill="#263238"/>
        <path id="Path_1760" data-name="Path 1760" d="M562.883,363.408c.123-.054.37.231.462.655s0,.786-.139.794-.262-.308-.347-.686-.108-.709.023-.771Z" transform="translate(-553.203 -354.429)" fill="#263238"/>
        <path id="Path_1761" data-name="Path 1761" d="M561.8,363.59c.139,0,.208.4.154.894s-.2.863-.339.84-.208-.424-.154-.894S561.665,363.59,561.8,363.59Z" transform="translate(-552.895 -354.473)" fill="#263238"/>
      </g>
      <path id="Path_1762" data-name="Path 1762" d="M517.534,376.424l-42.719-4.331-88.575,1.981,23.552-18.99,59.119-2.844,51.682,7.121Z" transform="translate(-366.93 -245.266)" fill="#263238"/>
      <path id="Path_1763" data-name="Path 1763" d="M451.859,368.17c0,.108-8.316.2-18.566.2s-18.573-.093-18.573-.2,8.316-.2,18.573-.2S451.859,368.062,451.859,368.17Z" transform="translate(-373.461 -248.874)" fill="#455a64"/>
      <path id="Path_1764" data-name="Path 1764" d="M457.55,353.906l3.036,19.105h5.826l-4.431-19.321Z" transform="translate(-383.282 -245.599)"/>
      <g id="Group_401" data-name="Group 401" transform="translate(81.482 119.937)">
        <path id="Path_1765" data-name="Path 1765" d="M482.247,376.782l-.863-7.722-14.473,1.526,1.148,11.314.9-.039c4.015-.2,20.415-1.295,23-2.389C494.84,378.254,482.247,376.782,482.247,376.782Z" transform="translate(-466.91 -369.06)" fill="#c46900"/>
        <path id="Path_1766" data-name="Path 1766" d="M492.559,381.6c.015.139-5.379.855-12.053,1.6s-12.1,1.241-12.115,1.1,5.379-.855,12.054-1.6,12.1-1.241,12.107-1.1Z" transform="translate(-467.249 -371.931)" fill="#263238"/>
        <path id="Path_1767" data-name="Path 1767" d="M487.351,380.633c-.123-.054-.069-.478.2-.917s.616-.686.724-.6-.054.455-.293.855-.493.709-.624.655Z" transform="translate(-471.583 -371.362)" fill="#263238"/>
        <path id="Path_1768" data-name="Path 1768" d="M488.615,381.085c-.131-.039-.116-.509.116-1.025s.57-.84.686-.763-.023.493-.231.971S488.754,381.123,488.615,381.085Z" transform="translate(-471.868 -371.405)" fill="#263238"/>
        <path id="Path_1769" data-name="Path 1769" d="M472.716,383.718c-.054.046-.293-.131-.647-.439a8.772,8.772,0,0,0-1.418-1.071,3.578,3.578,0,0,0-1.634-.47c-.439-.008-.717.085-.748.015-.031-.054.216-.277.724-.362a2.947,2.947,0,0,1,1.9.385,5.269,5.269,0,0,1,1.426,1.264c.293.378.439.64.393.686Z" transform="translate(-467.221 -371.88)" fill="#263238"/>
        <path id="Path_1770" data-name="Path 1770" d="M486.822,379.186c.085.108-.139.408-.532.6s-.771.177-.8.046.239-.324.586-.493S486.745,379.078,486.822,379.186Z" transform="translate(-471.17 -371.371)" fill="#263238"/>
        <path id="Path_1771" data-name="Path 1771" d="M486.3,378.222c.031.131-.347.293-.832.355s-.886,0-.894-.139.362-.293.832-.355S486.265,378.083,486.3,378.222Z" transform="translate(-470.96 -371.124)" fill="#263238"/>
      </g>
      <g id="Group_404" data-name="Group 404" transform="translate(11.819 7.888)">
        <path id="Path_1772" data-name="Path 1772" d="M376.79,255.292l12.354-.224c.162-1.434.409-6.99.409-6.99s5.164-.478,5.541-5.587.216-16.909.216-16.909h0a17.814,17.814,0,0,0-18,1.141l-.794.539.27,28.03Z" transform="translate(-376.52 -223.671)" fill="#b78876"/>
        <g id="Group_402" data-name="Group 402" transform="translate(15.791 8.734)">
          <path id="Path_1773" data-name="Path 1773" d="M398.6,237.084a.747.747,0,1,1,1.056.015A.751.751,0,0,1,398.6,237.084Z" transform="translate(-397.325 -235.191)" fill="#263238"/>
          <path id="Path_1774" data-name="Path 1774" d="M399.591,235.81c-.085.085-.563-.331-1.264-.378s-1.241.285-1.31.193c-.038-.038.054-.2.285-.354a1.741,1.741,0,0,1,1.056-.262,1.654,1.654,0,0,1,1,.416c.208.185.277.355.231.393Z" transform="translate(-397.009 -235.004)" fill="#263238"/>
        </g>
        <g id="Group_403" data-name="Group 403" transform="translate(8.107 8.881)">
          <path id="Path_1775" data-name="Path 1775" d="M389.442,236.149a.741.741,0,1,1-1.033.177.743.743,0,0,1,1.04-.177Z" transform="translate(-387.321 -235.381)" fill="#263238"/>
          <path id="Path_1776" data-name="Path 1776" d="M389.622,236c-.085.085-.563-.331-1.264-.378s-1.241.285-1.31.193c-.038-.039.054-.2.285-.354a1.742,1.742,0,0,1,1.056-.262,1.654,1.654,0,0,1,1,.416c.208.185.277.354.231.393Z" transform="translate(-387.039 -235.194)" fill="#263238"/>
        </g>
        <path id="Path_1777" data-name="Path 1777" d="M393.576,242.17a3.5,3.5,0,0,1,1.156-.169c.185-.008.331-.039.354-.139a1.076,1.076,0,0,0-.1-.539c-.154-.478-.308-.956-.47-1.464a19.758,19.758,0,0,1-.971-3.838,19.951,19.951,0,0,1,1.356,3.715c.154.509.293.994.439,1.472a1.164,1.164,0,0,1,.054.771.5.5,0,0,1-.339.277,1.2,1.2,0,0,1-.316.023,3.165,3.165,0,0,1-1.164-.116Z" transform="translate(-380.42 -226.503)" fill="#263238"/>
        <path id="Path_1778" data-name="Path 1778" d="M390.525,244.8c-.709-.486,1.958,1.195,3.391,1.218a1.946,1.946,0,0,1-2.343.632c-1.5-.655-1.048-1.85-1.048-1.85Z" transform="translate(-379.705 -228.497)" fill="#fff"/>
        <path id="Path_1779" data-name="Path 1779" d="M391.491,254.564a11.949,11.949,0,0,1-6.551-2.3s1.349,3.776,6.481,3.63Z" transform="translate(-378.451 -230.227)" fill="#a36957"/>
      </g>
      <path id="Path_1780" data-name="Path 1780" d="M395.262,221.4a1.921,1.921,0,1,0-1.056-3.561A5.617,5.617,0,0,0,395.67,216a1.947,1.947,0,0,0-.362-2.189,2.142,2.142,0,0,0-2.212-.131c-1.087.462-1.942,1.38-3.06,1.773a12.4,12.4,0,0,1-3.553.247,6.316,6.316,0,0,0-3.684,1.272,4.24,4.24,0,0,0-1.649,3.437c-1.665-.208-3.522-.231-4.84.809A4.83,4.83,0,0,0,374.7,225a14.351,14.351,0,0,0,1,4.115h0a2.94,2.94,0,0,0,.509,1.064l.624,3.668,2.281-.046-.146-7.637s-.231-3.214,2.536-2.936,6.528,3.406,11.922,2.613a5.962,5.962,0,0,0,2.512-.717,2.483,2.483,0,0,0,1.156-2.235,1.677,1.677,0,0,0-1.826-1.487Z" transform="translate(-364.283 -213.437)" fill="#263238"/>
      <g id="Group_405" data-name="Group 405" transform="translate(9.33 15.983)">
        <path id="Path_1781" data-name="Path 1781" d="M376.758,234.21c-.108-.039-3.792-.524-3.445,3.83s4.624,2.559,4.624,2.435-1.179-6.258-1.179-6.258Z" transform="translate(-373.29 -234.175)" fill="#b78876"/>
        <path id="Path_1782" data-name="Path 1782" d="M376.812,239.5a1.206,1.206,0,0,1-.193.131.735.735,0,0,1-.563.054,1.889,1.889,0,0,1-1-1.611,2.462,2.462,0,0,1,.123-1.1.852.852,0,0,1,.524-.624.391.391,0,0,1,.463.17c.069.116.046.208.069.216s.085-.077.039-.254a.493.493,0,0,0-.193-.262.561.561,0,0,0-.424-.077,1.079,1.079,0,0,0-.74.74,2.482,2.482,0,0,0-.162,1.233,1.971,1.971,0,0,0,1.256,1.788.812.812,0,0,0,.686-.17c.123-.116.139-.216.123-.223Z" transform="translate(-373.622 -234.622)" fill="#a36957"/>
      </g>
      <path id="Path_1783" data-name="Path 1783" d="M363.89,347.087c2.312,3.445,16.331,24.546,33.062,9.2,21.325-19.552,38.218-36.669,38.218-36.669l6.335,38.65,19.861-1.071s-7.738-57.555-12.632-62.788c-5.456-5.834-10.489-5.341-53.393,28.508L363.89,347.079Z" transform="translate(-361.805 -231.358)" fill="#455a64"/>
      <g id="Group_406" data-name="Group 406" transform="translate(0 36.329)">
        <path id="Path_1784" data-name="Path 1784" d="M456.03,274.506l18.543-13.526.909,1.449-18.419,13.7Z" transform="translate(-382.934 -260.668)" fill="#263238"/>
        <path id="Path_1785" data-name="Path 1785" d="M461.978,274.512s2.489-6.474,3.044-7.853,1.511-3.784,1.857-3.83,1.649.154-.046,4.27,2,1.6,2,1.6l3.568-2.559s2.821,8.431,1.218,10.967a40.964,40.964,0,0,1-4.231,5.364L461.97,274.5Z" transform="translate(-384.296 -261.091)" fill="#b78876"/>
        <path id="Path_1786" data-name="Path 1786" d="M439.074,273.249c-.37-.848-23.945,19.984-28.639,20.693l-13.749-17.9s-2.859-4.532-8.986-12.285c-3.954-5-14.867-3.961-17.741,2.135-4.871,10.358-4.925,21.872-7.53,44.284l-1.094,15.121a53.343,53.343,0,0,0,.146,9.672c.416,3.761,1.264,7.676,3.006,7.152l31.452-26,1.01-11.807c6.613,6.7,8.67,8.108,12.108,7.576C417.711,310.55,448,283.306,448,283.306s-8.57-9.194-8.932-10.042Z" transform="translate(-361.184 -260.575)" fill="#00c4b3"/>
        <path id="Path_1787" data-name="Path 1787" d="M465.747,291.7a9.592,9.592,0,0,1-1.688-1.326,37.45,37.45,0,0,1-3.615-3.707,38.4,38.4,0,0,1-3.083-4.162,9.175,9.175,0,0,1-1.033-1.88,14.066,14.066,0,0,1,1.272,1.719c.763,1.071,1.85,2.536,3.152,4.061s2.566,2.836,3.507,3.761a15.186,15.186,0,0,1,1.5,1.526Z" transform="translate(-383.001 -265.174)" fill="#263238"/>
        <path id="Path_1788" data-name="Path 1788" d="M423.341,310.968a16.448,16.448,0,0,1,.432-3.584,15.805,15.805,0,0,1,.832-3.514,32.64,32.64,0,0,1-1.256,7.1Z" transform="translate(-375.431 -270.503)" fill="#263238"/>
        <path id="Path_1789" data-name="Path 1789" d="M426.739,310.258a13.328,13.328,0,0,1-1.04-3.075,13.118,13.118,0,0,1-.655-3.183,13.314,13.314,0,0,1,1.04,3.075A13.1,13.1,0,0,1,426.739,310.258Z" transform="translate(-375.823 -270.533)" fill="#263238"/>
        <path id="Path_1790" data-name="Path 1790" d="M383.069,284.72s.3.339.794.994c.524.717,1.218,1.649,2.058,2.782,1.734,2.351,4.146,5.588,6.851,9.133,2.705,3.507,5.148,6.674,6.975,9.048.856,1.117,1.564,2.042,2.1,2.751a7.648,7.648,0,0,1,.732,1.04,8.489,8.489,0,0,1-.855-.94c-.532-.624-1.279-1.534-2.2-2.667-1.842-2.266-4.362-5.433-7.067-8.978s-5.087-6.813-6.767-9.21c-.84-1.195-1.5-2.173-1.957-2.859a7.938,7.938,0,0,1-.663-1.087Z" transform="translate(-366.202 -266.112)" fill="#263238"/>
        <path id="Path_1791" data-name="Path 1791" d="M376.613,303.36a9.815,9.815,0,0,1-2.212-1.711,9.989,9.989,0,0,1-1.942-2.012,9.811,9.811,0,0,1,2.212,1.711A9.987,9.987,0,0,1,376.613,303.36Z" transform="translate(-363.768 -269.531)" fill="#263238"/>
        <path id="Path_1792" data-name="Path 1792" d="M373.418,315.749a19.133,19.133,0,0,1-3.09,4.57,19.14,19.14,0,0,1,3.09-4.57Z" transform="translate(-363.279 -273.227)" fill="#263238"/>
        <path id="Path_1793" data-name="Path 1793" d="M378.433,330.291c-.085.069-.786-.624-1.557-1.549a6.055,6.055,0,0,1-1.249-1.8c.085-.069.786.624,1.557,1.549A6.059,6.059,0,0,1,378.433,330.291Z" transform="translate(-364.494 -275.792)" fill="#263238"/>
        <path id="Path_1794" data-name="Path 1794" d="M368.655,341.267a6.251,6.251,0,0,1-1.726,1.41,6.378,6.378,0,0,1-1.95,1.079,6.25,6.25,0,0,1,1.726-1.41A6.375,6.375,0,0,1,368.655,341.267Z" transform="translate(-362.053 -279.076)" fill="#263238"/>
        <path id="Path_1795" data-name="Path 1795" d="M382.065,342.728a6.826,6.826,0,0,1-3.329-3.938c.108-.054.67.963,1.588,2.035S382.134,342.627,382.065,342.728Z" transform="translate(-365.206 -278.51)" fill="#263238"/>
        <path id="Path_1796" data-name="Path 1796" d="M394.217,334.476a9.62,9.62,0,0,1-1.973,1.942,9.3,9.3,0,0,1-2.235,1.634,9.62,9.62,0,0,1,1.973-1.942,9.755,9.755,0,0,1,2.235-1.642Z" transform="translate(-367.793 -277.518)" fill="#263238"/>
        <path id="Path_1797" data-name="Path 1797" d="M369.051,351.785a3.962,3.962,0,0,1-1.749-1.233,4.122,4.122,0,0,1-1.194-1.773c.1-.062.678.678,1.48,1.5s1.526,1.418,1.464,1.51Z" transform="translate(-362.311 -280.801)" fill="#263238"/>
        <path id="Path_1798" data-name="Path 1798" d="M396.38,325.583a4.785,4.785,0,0,1-2.112.809,4.709,4.709,0,0,1-2.258.131,10.182,10.182,0,0,1,2.173-.524A9.948,9.948,0,0,1,396.38,325.583Z" transform="translate(-368.253 -275.477)" fill="#263238"/>
        <path id="Path_1799" data-name="Path 1799" d="M387.922,315.07a13.2,13.2,0,0,1-.755,2.744,23.558,23.558,0,0,1-.9,2.613l-.085-.023c.023-.046.046-.062.062-.062s.023.031.031.085l-.085-.023a11.566,11.566,0,0,1,.6-2.713,8.471,8.471,0,0,1,1.133-2.62Z" transform="translate(-366.916 -273.071)" fill="#263238"/>
        <path id="Path_1800" data-name="Path 1800" d="M391.042,307.456a17.8,17.8,0,0,1-4.324-3.129,17.8,17.8,0,0,1,4.324,3.129Z" transform="translate(-367.039 -270.606)" fill="#263238"/>
        <path id="Path_1801" data-name="Path 1801" d="M383.567,293.687a9.534,9.534,0,0,1-2.759,3.815,9.21,9.21,0,0,1,1.295-1.973,9.47,9.47,0,0,1,1.464-1.85Z" transform="translate(-365.682 -268.166)" fill="#263238"/>
        <path id="Path_1802" data-name="Path 1802" d="M372.157,290.147a16.932,16.932,0,0,1,.431-5.187,8.854,8.854,0,0,1-.015,2.613A8.765,8.765,0,0,1,372.157,290.147Z" transform="translate(-363.683 -266.167)" fill="#263238"/>
        <path id="Path_1803" data-name="Path 1803" d="M367.355,312.058a10.059,10.059,0,0,1-.247-2.805,10.268,10.268,0,0,1,.154-2.813,10.059,10.059,0,0,1,.247,2.805A10.264,10.264,0,0,1,367.355,312.058Z" transform="translate(-362.542 -271.092)" fill="#263238"/>
        <path id="Path_1804" data-name="Path 1804" d="M366.456,333.852a4.116,4.116,0,0,1-.686-1.672,4.216,4.216,0,0,1-.3-1.78,4.114,4.114,0,0,1,.686,1.672A4.217,4.217,0,0,1,366.456,333.852Z" transform="translate(-362.158 -276.587)" fill="#263238"/>
        <path id="Path_1805" data-name="Path 1805" d="M382.41,275.2a17.4,17.4,0,0,1-1.981,1.965,18.566,18.566,0,0,1-2.012,1.934,6.89,6.89,0,0,1,1.734-2.22,6.769,6.769,0,0,1,2.266-1.672Z" transform="translate(-365.134 -263.928)" fill="#263238"/>
        <path id="Path_1806" data-name="Path 1806" d="M376.414,271.3a8.256,8.256,0,0,1-.092-2.551,8.485,8.485,0,0,1,.308-2.536,8.263,8.263,0,0,1,.092,2.551A8.492,8.492,0,0,1,376.414,271.3Z" transform="translate(-364.649 -261.867)" fill="#263238"/>
        <path id="Path_1807" data-name="Path 1807" d="M392.724,269.576a11.72,11.72,0,0,1-2.135-1.372,11.844,11.844,0,0,1-2.05-1.487,6.337,6.337,0,0,1,2.281,1.156,6.218,6.218,0,0,1,1.911,1.7Z" transform="translate(-367.457 -261.981)" fill="#263238"/>
        <path id="Path_1808" data-name="Path 1808" d="M390.092,281.313a9.48,9.48,0,0,1-.254-2.7,9.318,9.318,0,0,1,.146-2.705,9.436,9.436,0,0,1,.254,2.7A9.319,9.319,0,0,1,390.092,281.313Z" transform="translate(-367.753 -264.091)" fill="#263238"/>
        <path id="Path_1809" data-name="Path 1809" d="M399.047,289.871a11.669,11.669,0,0,1-2.335-.509,11.789,11.789,0,0,1-2.312-.6,8.279,8.279,0,0,1,4.647,1.117Z" transform="translate(-368.801 -267.024)" fill="#263238"/>
        <path id="Path_1810" data-name="Path 1810" d="M401.053,281.419a12.955,12.955,0,0,1-.046-4.539,12.951,12.951,0,0,1,.046,4.539Z" transform="translate(-370.275 -264.314)" fill="#263238"/>
        <path id="Path_1811" data-name="Path 1811" d="M408.833,293.556a10.613,10.613,0,0,1-.324-2.852,10.172,10.172,0,0,1,.077-2.875,10.644,10.644,0,0,1,.324,2.859,10.177,10.177,0,0,1-.077,2.875Z" transform="translate(-372.028 -266.825)" fill="#263238"/>
        <path id="Path_1812" data-name="Path 1812" d="M402.187,298.653c-.085.077-.709-.493-1.395-1.272s-1.179-1.464-1.095-1.534.709.493,1.395,1.272S402.271,298.584,402.187,298.653Z" transform="translate(-370.013 -268.662)" fill="#263238"/>
        <path id="Path_1813" data-name="Path 1813" d="M409.179,305.213a13,13,0,0,1-4.539.339,13.008,13.008,0,0,1,4.539-.339Z" transform="translate(-371.149 -270.79)" fill="#263238"/>
        <path id="Path_1814" data-name="Path 1814" d="M416.157,306.656a16.249,16.249,0,0,1-.185-5.087,16.252,16.252,0,0,1,.185,5.087Z" transform="translate(-373.718 -269.976)" fill="#263238"/>
        <path id="Path_1815" data-name="Path 1815" d="M420.258,318.914a11.854,11.854,0,0,1-5.518-.624,14.526,14.526,0,0,1,2.767.239,14.05,14.05,0,0,1,2.751.378Z" transform="translate(-373.465 -273.802)" fill="#263238"/>
        <path id="Path_1816" data-name="Path 1816" d="M431.072,314.06a8.539,8.539,0,0,1-.67,2.551,9.06,9.06,0,0,1-1.048,2.42,8.549,8.549,0,0,1,.671-2.551A8.786,8.786,0,0,1,431.072,314.06Z" transform="translate(-376.811 -272.84)" fill="#263238"/>
        <path id="Path_1817" data-name="Path 1817" d="M437.2,304.838a7.376,7.376,0,0,1-2.381-.447,7.3,7.3,0,0,1-2.274-.84,7.375,7.375,0,0,1,2.381.447A7.29,7.29,0,0,1,437.2,304.838Z" transform="translate(-377.549 -270.423)" fill="#263238"/>
        <path id="Path_1818" data-name="Path 1818" d="M443.125,308.588a7.24,7.24,0,0,1-1.672,1.749,7.332,7.332,0,0,1-1.934,1.449,7.234,7.234,0,0,1,1.672-1.749A7.324,7.324,0,0,1,443.125,308.588Z" transform="translate(-379.146 -271.583)" fill="#263238"/>
        <path id="Path_1819" data-name="Path 1819" d="M446.165,298.8a6.178,6.178,0,0,1-.8-2.474,6.29,6.29,0,0,1-.108-2.6,70.868,70.868,0,0,1,.909,5.071Z" transform="translate(-380.444 -268.176)" fill="#263238"/>
        <path id="Path_1820" data-name="Path 1820" d="M455.715,298.408a24.743,24.743,0,0,1-2.4,2.358,26.265,26.265,0,0,1-2.42,2.335,15.009,15.009,0,0,1,4.817-4.694Z" transform="translate(-381.755 -269.249)" fill="#263238"/>
        <path id="Path_1821" data-name="Path 1821" d="M456.735,294.045a17.753,17.753,0,0,1-4.955-1.88,17.758,17.758,0,0,1,4.955,1.88Z" transform="translate(-381.959 -267.815)" fill="#263238"/>
        <path id="Path_1822" data-name="Path 1822" d="M456.814,289.195a6.273,6.273,0,0,1-.809-2.089,6.346,6.346,0,0,1-.424-2.2A6.275,6.275,0,0,1,456.39,287,6.348,6.348,0,0,1,456.814,289.195Z" transform="translate(-382.824 -266.155)" fill="#263238"/>
        <path id="Path_1823" data-name="Path 1823" d="M400.441,318.2a6.286,6.286,0,0,1-1.449-1.7,6.6,6.6,0,0,1-1.125-1.927,6.286,6.286,0,0,1,1.449,1.7A6.606,6.606,0,0,1,400.441,318.2Z" transform="translate(-369.594 -272.958)" fill="#263238"/>
      </g>
      <path id="Path_1824" data-name="Path 1824" d="M454.4,355.944a2.676,2.676,0,0,1-.062-.331c-.031-.239-.077-.555-.139-.971-.116-.871-.278-2.127-.493-3.73-.432-3.245-1.063-7.93-2-13.7s-2.173-12.624-3.93-20.146a10.224,10.224,0,0,0-.925-2.721,8.346,8.346,0,0,0-1.85-2.25,8,8,0,0,0-5.611-1.819,7.393,7.393,0,0,0-2.975.809,20.247,20.247,0,0,0-2.651,1.788c-1.742,1.295-3.514,2.613-5.3,3.938-7.136,5.356-13.818,10.6-19.783,15.529-5.973,4.909-11.167,9.533-15.529,13.441-2.2,1.9-4.555,3.414-6.944,3.661a7,7,0,0,1-3.229-.385,9.909,9.909,0,0,1-2.4-1.318,20.231,20.231,0,0,1-2.774-2.551c-.277-.308-.493-.547-.655-.724a1.4,1.4,0,0,1-.208-.262,3.016,3.016,0,0,1,.239.231c.169.169.393.4.686.7a22.016,22.016,0,0,0,2.813,2.482,9.446,9.446,0,0,0,2.374,1.264,6.878,6.878,0,0,0,3.144.347c2.3-.254,4.6-1.749,6.782-3.653,4.323-3.93,9.51-8.585,15.475-13.51,5.95-4.94,12.631-10.2,19.776-15.56q2.682-2,5.3-3.938a20.23,20.23,0,0,1,2.705-1.819,7.818,7.818,0,0,1,3.121-.84,8.362,8.362,0,0,1,5.88,1.919,8.755,8.755,0,0,1,1.934,2.366,10.682,10.682,0,0,1,.948,2.821c1.742,7.537,2.952,14.4,3.853,20.184s1.48,10.481,1.873,13.726c.177,1.611.316,2.867.416,3.746.038.416.069.74.092.979a1.333,1.333,0,0,1,.015.331Z" transform="translate(-364.799 -235.553)" fill="#263238"/>
      <path id="Path_1825" data-name="Path 1825" d="M483.234,369.091a6.414,6.414,0,0,1-.771.123c-.5.054-1.225.116-2.119.177-1.8.123-4.27.254-7.006.37-2.682.116-5.11.223-7.006.3-.825.031-1.534.054-2.127.077a3.048,3.048,0,0,1-.786-.023,2.585,2.585,0,0,1,.771-.131c.5-.062,1.225-.131,2.119-.208,1.788-.146,4.27-.3,7.005-.416,2.682-.1,5.11-.185,7.005-.254.825-.015,1.534-.039,2.127-.046A3.218,3.218,0,0,1,483.234,369.091Z" transform="translate(-384.628 -249.124)" fill="#263238"/>
      <path id="Path_1826" data-name="Path 1826" d="M461.5,320.149a26.416,26.416,0,0,1-6.743,7.345c-.077-.092,1.572-1.6,3.422-3.622s3.221-3.792,3.314-3.722Z" transform="translate(-382.642 -237.907)" fill="#263238"/>
      <path id="Path_1827" data-name="Path 1827" d="M462.484,323.188a26.307,26.307,0,0,1-3.291,2.142,26.937,26.937,0,0,1-3.383,1.981,15.625,15.625,0,0,1,3.175-2.32A15.369,15.369,0,0,1,462.484,323.188Z" transform="translate(-382.883 -238.603)" fill="#263238"/>
      <path id="Path_1828" data-name="Path 1828" d="M535.032,370.428s-.162.008-.47-.008c-.347-.031-.794-.062-1.341-.108-1.218-.116-2.89-.277-4.932-.47-4.208-.439-9.926-1.033-16.254-1.7-6.35-.663-12.084-1.4-16.254-1.611-2.081-.108-3.776-.1-4.94-.062-.547.023-.994.046-1.341.062a1.818,1.818,0,0,1-.47,0,2.216,2.216,0,0,1,.462-.085c.308-.046.755-.085,1.341-.131a48.23,48.23,0,0,1,4.963-.069c4.193.139,9.934.832,16.285,1.5,6.32.709,12.038,1.341,16.238,1.811,2.034.247,3.707.447,4.917.593.547.077.987.131,1.333.185A1.866,1.866,0,0,1,535.032,370.428Z" transform="translate(-390.501 -248.472)" fill="#455a64"/>
      <path id="Path_1829" data-name="Path 1829" d="M547.444,377.725c-.108-.015.239-3.877.778-8.632s1.064-8.6,1.179-8.593-.239,3.877-.778,8.632-1.064,8.6-1.179,8.586Z" transform="translate(-403.892 -247.161)" fill="#455a64"/>
    </g>
  </g>
</svg>
